<?xml version="1.0" encoding="utf-8"?>
<!-- Generator: Adobe Illustrator 26.0.3, SVG Export Plug-In . SVG Version: 6.00 Build 0)  -->
<svg version="1.1" id="Слой_1" xmlns="http://www.w3.org/2000/svg" xmlns:xlink="http://www.w3.org/1999/xlink" x="0px" y="0px"
	 viewBox="0 0 200 100" style="enable-background:new 0 0 200 100;" xml:space="preserve">
<style type="text/css">
	.st0{clip-path:url(#SVGID_00000085939826641843801580000000185328351449216660_);}
	.st1{clip-path:url(#SVGID_00000160903920991075271230000015293822161099991743_);}
	.st2{fill:#FFFFFF;}
	.st3{clip-path:url(#SVGID_00000070800423310759333910000010584749756483036053_);}
	.st4{fill:#F3E600;}
	.st5{fill:none;stroke:#FFFFFF;stroke-width:0.78;stroke-miterlimit:10;}
	.st6{fill:none;stroke:#F1E511;stroke-width:0.78;stroke-miterlimit:10;}
	.st7{fill:#3ABFF8;}
</style>
<g>
	<g>
		<g>
			<defs>
				<rect id="SVGID_1_" x="6" y="-307.1" width="399.6" height="269.5"/>
			</defs>
			<clipPath id="SVGID_00000075885133211932918590000003190607435192239533_">
				<use xlink:href="#SVGID_1_"  style="overflow:visible;"/>
			</clipPath>
			<g style="clip-path:url(#SVGID_00000075885133211932918590000003190607435192239533_);">
				<g>
					<g>
						<g>
							<defs>
								<rect id="SVGID_00000146479172980116441000000000868588585071746458_" x="2.7" y="-424.1" width="981.5" height="521.2"/>
							</defs>
							<clipPath id="SVGID_00000127763956043193056970000016120526632579384497_">
								<use xlink:href="#SVGID_00000146479172980116441000000000868588585071746458_"  style="overflow:visible;"/>
							</clipPath>
							<g style="clip-path:url(#SVGID_00000127763956043193056970000016120526632579384497_);">
								<rect x="-82.2" y="-27.1" class="st2" width="585.1" height="136.6"/>
								<g>
									<g>
										<g>
											<defs>
												<rect id="SVGID_00000053517496249907990020000002391669732980218769_" x="-313.4" y="-433" width="807" height="538"/>
											</defs>
											<clipPath id="SVGID_00000172434636370411321970000017748281511783601056_">
												<use xlink:href="#SVGID_00000053517496249907990020000002391669732980218769_"  style="overflow:visible;"/>
											</clipPath>
											<g style="clip-path:url(#SVGID_00000172434636370411321970000017748281511783601056_);">
												<path class="st4" d="M135,15.4H45.3c0,49.5,40.1,89.7,89.7,89.7l0,0l0,0V15.4z"/>
												<path class="st4" d="M134.9,5.8L134.9,5.8V97l75.6-5.3c1.5-3.7,2.7-7.5,3.3-11.4c4-24.3-11.5-44.2-14.4-47.8
													C177.3,4.1,138.9,5.5,134.9,5.8z"/>
												<path class="st2" d="M179.8,15.4L179.8,15.4c24.8,0,44.8,20.1,44.8,44.8l0,0c0,24.8-20.1,44.8-44.8,44.8l0,0
													C155,105,135,84.9,135,60.2l0,0C135,35.4,155,15.4,179.8,15.4z"/>
												<path class="st4" d="M179.8,40.2L179.8,40.2c-11,0-20,9-20,20l0,0c0,11,9,20,20,20l0,0l0,0c11,0,20-9,20-20l0,0
													C199.8,49.1,190.8,40.2,179.8,40.2L179.8,40.2z"/>
												<path class="st2" d="M135-74.3L135-74.3c-49.5,0-89.7,40.1-89.7,89.6l0,0H135V-74.3z"/>
												<path class="st4" d="M135-35.6L135-35.6c-28.2,0-51,22.8-51,51h51V-35.6z"/>
												<rect x="135" y="-74.3" class="st2" width="89.6" height="89.7"/>
											</g>
										</g>
									</g>
								</g>
								<polygon class="st5" points="189.4,5.1 181.6,5.1 177.7,11.9 181.6,18.7 189.4,18.7 193.3,11.9 								"/>
								<circle class="st6" cx="38.5" cy="-14.8" r="42.2"/>
							</g>
						</g>
					</g>
				</g>
			</g>
		</g>
	</g>
</g>
<path class="st7" d="M26.3,17.7h15l-4.2,20.1l10.4,6.9l-4.1,19.5L19.9,48L26.3,17.7z M55.9,16.9H71L56.5,85.1L44.3,71.7L55.9,16.9z"
	/>
<path class="st7" d="M75,17.7h15l-4.2,20.1l10.4,6.9L92,64.3L68.6,48L75,17.7z M104.6,16.9h15.1l-14.5,68.2L93,71.7L104.6,16.9z"/>
<g>
	<path class="st7" d="M178.9,83.7L164.1,59c-1.2-2-3.4-3.2-5.8-3l-36.9,3c-0.7,0.1-1.4,0.5-1.7,1.2c-0.1,0.1-0.1,0.1-0.1,0.2
		c-0.2,0.6-0.1,1.3,0.3,1.8l12.3,16.1l3.5,4.3c2.3,2.8,5.7,4.4,9.4,4.3l32.4-0.7c0.2,0,0.4,0,0.6,0c0.3-0.1,0.7-0.4,0.9-0.7
		C179.3,84.9,179.2,84.2,178.9,83.7z M145,69.7c0.2-0.5,0.5-0.8,1-1c1.2-0.6,3.1-0.4,5.2,0.4c3.1,1.2,4.9,3.2,4.4,4.7
		c-0.2,0.5-0.5,0.8-1,1c-1.1,0.6-3.1,0.4-5.2-0.4C146.4,73.2,144.5,71.2,145,69.7z M121.3,61.6c-0.2-0.2-0.2-0.5-0.1-0.8
		c0.1-0.3,0.4-0.6,0.7-0.6l17.2-1.1l-15.9,2.3c-0.2,0-0.3,0.2-0.3,0.4v0.1l5.3,8.5l0.2,0.3L121.3,61.6z M129.2,63.4
		c1.2-0.6,3.1-0.4,5.2,0.4c3.1,1.2,4.9,3.2,4.4,4.7c-0.2,0.5-0.5,0.8-1,1c-1.2,0.6-3.1,0.4-5.2-0.4c-3-1.2-4.8-3.2-4.4-4.7
		C128.4,63.9,128.7,63.6,129.2,63.4z M145.8,85.6c-2.2,0.2-4.4-0.3-6.4-1.3c-0.9-0.6-1.7-1.4-2.4-2.2c-1.8-2-3.4-4.1-4.8-6.3
		c1.7,1.8,3.6,3.4,5.6,4.8c0.2,0.1,0.4,0.3,0.5,0.4l0.8-6.3c0.4-0.7,0.8-1.4,1-2.1c0,0-1.4,1.9-2.2,1.8c-0.3-0.1-0.6-1.7,0.1-2.6
		c0,0,0,0,0,0c-0.7,0.2-1.3,0.2-2,0.2c-0.3,0-0.6,0-0.9-0.1l-0.4-0.1l-0.4-0.1l-0.4-0.1l-0.4-0.1c-0.3-0.1-0.6-0.2-0.8-0.3
		c-0.1-0.1-0.3-0.1-0.4-0.2l-0.4-0.2c-0.3-0.2-0.5-0.3-0.8-0.4c-0.3-0.1-0.5-0.3-0.7-0.5c-0.2-0.2-0.5-0.4-0.7-0.6
		c-0.2-0.2-0.4-0.4-0.6-0.6s-0.4-0.4-0.5-0.7c0.8,0.8,1.8,1.4,2.8,1.9c0.5,0.2,1,0.5,1.6,0.6c0.5,0.2,1.1,0.3,1.6,0.4
		c0.6,0.1,1.1,0.2,1.7,0.2s1.1-0.1,1.7-0.2c0.1,0,0.3-0.1,0.4-0.1s0.3-0.1,0.4-0.2c0.2-0.1,0.5-0.3,0.7-0.5c0.4-0.4,0.7-0.9,0.8-1.5
		c0.1-0.6,0-1.1-0.2-1.7c-0.2-0.5-0.5-1-0.9-1.4c-0.4-0.4-0.8-0.8-1.2-1.2c-0.5-0.3-0.9-0.6-1.4-0.9c-1-0.5-2.1-0.9-3.1-1.2
		c-1.4-0.3-2.5-0.4-3.6-0.2c0.3-0.1,0.5-0.2,0.8-0.3c0.3-0.1,0.6-0.1,0.9-0.1c0.3,0,0.6,0,0.9,0s0.6,0,0.9,0.1
		c1.2,0.2,2.3,0.5,3.4,1c0.6,0.3,1.1,0.6,1.6,0.9c0.1,0.1,0.1,0.1,0.2,0.2l0.6-3.3l3-0.3l-1.1,7.5c0,0.3,0,0.5-0.1,0.8l1-0.2
		c0.1-0.1,0.3-0.1,0.5-0.1c0.5,0,0.9,0.5,0.8,1l-1.6,14c0.3,0.2,0.7,0.4,1,0.5l1.2-10.1l0.1,10.6c0.9,0.3,1.8,0.6,2.9,0.8
		c1,0.2,2.1,0.3,3.4,0.4L145.8,85.6z M176.9,84.8L158,85.2l7.4-1.2l-4.5-0.8l4.9-0.3c-0.2-0.1-0.4-0.1-0.6-0.2l-0.4-0.2
		c-0.1-0.1-0.3-0.1-0.4-0.2c-0.1-0.1-0.5-0.3-0.8-0.4c-0.3-0.1-0.5-0.3-0.7-0.5c-0.2-0.2-0.5-0.4-0.7-0.6c-0.2-0.2-0.4-0.4-0.6-0.6
		s-0.4-0.4-0.5-0.7c0.8,0.8,1.7,1.4,2.8,1.9c0.5,0.2,1,0.5,1.6,0.7c0.5,0.2,1.1,0.3,1.6,0.4c0.6,0.1,1.1,0.2,1.7,0.2
		c0.1,0,0.2,0,0.3,0c0.7-0.1,1.5-0.3,2.3-0.5c0.2-0.1,0.4-0.3,0.6-0.5c0.4-0.4,0.7-0.9,0.8-1.5c0.1-0.6,0-1.1-0.2-1.7
		c-0.2-0.5-0.5-1-0.9-1.4c-0.4-0.4-0.8-0.8-1.2-1.2c-0.5-0.3-0.9-0.7-1.4-0.9c-1-0.5-2.1-0.9-3.1-1.2c-1.3-0.4-2.5-0.4-3.6-0.3
		c0.3-0.1,0.5-0.2,0.8-0.2c0.3-0.1,0.6-0.1,0.9-0.1c0.3,0,0.6,0,0.9,0s0.6,0,0.9,0.1c1.2,0.2,2.3,0.5,3.4,1c0.6,0.3,1.1,0.6,1.6,0.9
		c0.1,0.1,0.2,0.2,0.3,0.2c0,0-0.1-0.1-0.1-0.1l-2.8-2.1l0.3-1.8c-1.3-2.6-2.8-5.1-4.4-7.5l-0.5,3.1l-3.7,2.9l2-9.4
		c-0.4-0.4-0.8-0.9-1.3-1.2l-2.5,10.9c-0.5-0.7-1.2-1.3-1.9-1.8c1.5,2.6,1.7,3.6,1.5,4c0.1,0.5,0.1,1,0,1.5c-0.2,1-0.9,1.9-1.7,2.5
		l-2.1,7.8l-2.5,0.1l1.9-7.1c-0.2,0-0.4,0-0.6,0c-0.3,0-0.6,0-0.9-0.1l-0.5-0.1L151,77l-0.4-0.1l-0.4-0.1c-0.3-0.1-0.6-0.2-0.8-0.3
		c-0.1,0-0.3-0.1-0.4-0.2l-0.4-0.2c-0.3-0.2-0.5-0.3-0.8-0.4c-0.3-0.1-0.5-0.3-0.7-0.5s-0.5-0.4-0.7-0.6c-0.2-0.2-0.4-0.4-0.6-0.6
		s-0.4-0.4-0.5-0.7c0.8,0.8,1.7,1.4,2.8,1.9c0.5,0.2,1,0.5,1.6,0.6c0.5,0.2,1.1,0.3,1.6,0.4c0.6,0.1,1.1,0.2,1.7,0.2
		c0.6,0,1.1-0.1,1.7-0.2c0.1-0.1,0.3-0.1,0.4-0.2c0.1-0.1,0.3-0.1,0.4-0.2c0.2-0.1,0.5-0.3,0.7-0.5c0.4-0.4,0.7-0.9,0.8-1.5
		c0.1-0.6,0-1.1-0.2-1.7c-0.2-0.5-0.5-1-0.9-1.4c-0.4-0.4-0.8-0.8-1.2-1.2c-0.5-0.3-0.9-0.6-1.4-0.9c-1-0.5-2-0.9-3.1-1.2
		c-1.3-0.2-2.4-0.3-3.5-0.1c0.3-0.1,0.5-0.2,0.8-0.3c0.3,0,0.6-0.1,0.9-0.1s0.6,0,0.9,0s0.6,0,0.9,0.1c1,0.2,2,0.4,2.9,0.8l2.1-9.6
		l1.2,0.1c-0.7-0.1-1.5-0.1-2.8-0.2l0.5,0.1l-1.4,5.7l0.5-5.8c-0.3,0-0.7,0-1.1-0.1l-1.2-0.1l7.2-0.6c2,0,3.8,0.9,4.7,2.5L177.4,84
		c0.1,0.2,0.1,0.4,0.1,0.6C177.4,84.8,177.1,84.8,176.9,84.8z M160.8,75.9c0.2-0.5,0.5-0.8,1-1c1.2-0.6,3.1-0.4,5.2,0.4
		c3,1.2,4.9,3.2,4.4,4.7c-0.2,0.5-0.5,0.8-1,1c-1.2,0.6-3.1,0.4-5.2-0.4C162.2,79.4,160.3,77.4,160.8,75.9z"/>
	<path class="st7" d="M119.9,54.4l39-2.8c1.5-0.1,2.8-1.3,3-2.8l4.9-36.3c0.1-0.6-0.1-1.3-0.6-1.8c-0.2-0.2-0.3-0.3-0.5-0.4
		c-0.7-0.1-1.4-0.1-2.1,0.1L128,16.6c-1,0.2-1.9,0.7-2.6,1.5c-0.3,0.4-0.5,0.8-0.7,1.3c0,0.1-0.1,0.3-0.1,0.4l-6.3,28.5l-0.8,3.8
		c0,0.5,0.2,1.1,0.6,1.5C118.6,54.1,119.2,54.4,119.9,54.4z M131.7,50.8c-0.3,0.2-0.7,0.5-1,0.7c-0.4,0.2-0.7,0.4-1.1,0.5l-0.3,0.1
		l-0.3,0.1c-0.2,0-0.4,0.1-0.6,0.1h-0.6c-0.2,0-0.4,0-0.6-0.1c-0.4-0.1-0.8-0.3-1.2-0.5c-0.3-0.2-0.6-0.5-0.9-0.9
		c-0.2-0.3-0.3-0.7-0.4-1.1c0.2,0.3,0.4,0.6,0.6,0.8c0.3,0.2,0.5,0.4,0.9,0.6c0.6,0.2,1.3,0.3,2,0.2c0.7-0.1,1.3-0.4,1.9-0.8
		c0.6-0.4,1.1-0.8,1.6-1.3c0.2-0.2,0.5-0.5,0.7-0.8l0.3-0.4l0.1-0.2c0-0.1,0.1-0.1,0.1-0.2c0.3-0.6,0.6-1.2,0.8-1.9
		c0.1-0.2,0.1-0.3,0.1-0.5s0.1-0.3,0.1-0.5c0-0.3,0.1-0.7,0.1-1s-0.1-0.7-0.2-1c-0.1-0.8-0.2-1.1-0.4-1.5c0.3,0.2,0.6,0.5,0.8,0.9
		c0.2,0.3,0.3,0.7,0.4,1.1c0.1,0.4,0.2,0.8,0.2,1.2c0,0.4,0,0.8-0.1,1.2c0,0.2-0.1,0.4-0.1,0.6s-0.1,0.2-0.1,0.3l-0.1,0.3l-0.1,0.3
		l-0.1,0.3c0,0.1-0.1,0.2-0.1,0.3L134,48c0,0.1-0.1,0.2-0.1,0.3l-0.2,0.3c-0.1,0.2-0.2,0.3-0.3,0.5c-0.2,0.3-0.5,0.6-0.8,0.9
		C132.3,50.3,132,50.6,131.7,50.8z M126.3,43.4c1.5-2.2,4-3.1,5.5-2s1.5,3.7-0.1,5.8c-1.5,2.2-4,3.1-5.5,2S124.8,45.6,126.3,43.4z
		 M132.8,52l3.6-1.2l9.5-9.5l-8.1,9.7l2.3,0.4L132.8,52z M160.4,48.6c0,0.1,0,0.2-0.1,0.3c-0.2,0.7-0.8,1.1-1.5,1.2l-16.6,1.2
		l8.4-1.5l-4.5-0.3l2.9-0.6c-0.3-0.2-0.6-0.5-0.8-0.8c-0.2-0.3-0.3-0.7-0.4-1.1c0.3,0.6,0.8,1.1,1.5,1.4c0.4,0.1,0.9,0.2,1.4,0.2
		l0.2,0c0,0,0.7-0.1,1.5-0.3c0.3-0.1,0.5-0.3,0.8-0.5c0.6-0.4,1.1-0.8,1.6-1.3c0.2-0.3,0.5-0.5,0.7-0.8c0.1-0.1,0.2-0.3,0.3-0.4
		l0.1-0.2c0-0.1,0.1-0.1,0.1-0.2c0.4-0.6,0.6-1.2,0.8-1.9c0.1-0.2,0.1-0.3,0.1-0.5s0.1-0.3,0.1-0.5c0-0.3,0-0.7,0-1s-0.1-0.7-0.1-1
		c-0.2-0.8-0.3-1.1-0.5-1.5c0.3,0.2,0.6,0.5,0.8,0.9c0.2,0.3,0.3,0.7,0.4,1.1c0.1,0.4,0.1,0.8,0.2,1.2c0,0.4,0,0.8-0.1,1.2
		c0,0.2-0.1,0.4-0.1,0.6s-0.1,0.2-0.1,0.3l-0.1,0.3l-0.1,0.3c0,0.1-0.1,0.2-0.1,0.3l-0.1,0.3l-0.1,0.3c0,0,0,0.1-0.1,0.1
		c0.2-0.7,0.4-1.3,0.6-2c0.3-1.6-0.1-2-0.1-2c-0.4,1.8-1.1,3.4-2,5c-0.7,1-2,1.6-3,1.9c-0.3,0.2-0.7,0.3-1.1,0.3c-0.2,0-0.4,0-0.6,0
		l-1.7,0.3c0,0,0,0,0.1,0.1c0.4,0.2,0.8,0.4,1.2,0.5c0.2,0.1,0.4,0.1,0.6,0.1h0.6c0.2,0,0.4-0.1,0.6-0.1c0.1-0.1,0.2-0.1,0.3-0.1
		l0.3-0.1c0.4-0.1,0.7-0.3,1.1-0.5c0.3-0.2,0.7-0.5,1-0.7c0.3-0.2,0.6-0.5,0.9-0.8c0.3-0.3,0.6-0.6,0.8-0.9c0.1-0.1,0.1-0.2,0.2-0.3
		c0.1-0.2,0.1-0.4,0.2-0.6c0,0,0,0.1,0,0.1l-0.1,0.3c0,0.1-0.1,0.1-0.1,0.2c-0.1,0.4-0.3,0.8-0.4,1.1c0,0,2.6-1.8,2.3-6.5l1.6-2.9
		l2.2-4.1L160.4,48.6z M149.3,40.7c1.5-2.2,4-3.1,5.5-2s1.5,3.7-0.1,5.8c-1.5,2.2-4,3.1-5.5,2S147.8,42.9,149.3,40.7z M144.2,27.8
		c0.2,0,0.4,0,0.6,0c0.4,0.1,0.9,0.2,1.3,0.4c0.2,0.1,0.3,0.2,0.5,0.3l3.5-3.5l-0.1-0.3c0-0.1-0.1-0.2-0.1-0.3c0-0.1,0-0.2-0.1-0.3
		c0-0.2-0.1-0.4-0.1-0.5v-0.3V23c0-0.2,0-0.4,0-0.5c0-0.3,0.1-0.7,0.2-1c0-0.2,0.1-0.3,0.2-0.5c0.1-0.2,0.1-0.3,0.2-0.5l0.2-0.5
		l0.3-0.4c-0.3,0.6-0.4,1.2-0.5,1.9c-0.1,0.6-0.1,1.3,0.1,1.9c0,0.2,0.1,0.3,0.1,0.5c0,0.1,0.1,0.2,0.1,0.2c0,0.1,0.1,0.2,0.1,0.2
		l0.1,0.2l0.1,0.1l0.1,0.1l0.1,0.2l0.1,0.2c0.4,0.5,1,0.9,1.6,1.1c0.6,0.2,1.3,0.2,1.9,0.1c0.6-0.1,1.3-0.3,1.8-0.6
		c1.1-0.6,2.1-1.5,2.8-2.6c0.7-1.1,1.2-2.3,1.3-3.6c0-0.7,0-1.3-0.2-1.9c-0.2-0.6-0.5-1.2-1-1.6s-1.1-0.8-1.7-0.9
		c-0.6-0.1-1.3-0.1-1.9,0c-1.2,0.5-2.3,1.2-3.2,2.1c0.6-0.9,1.4-1.7,2.3-2.2c-2.1,0.3-3.9,0.9-4,0.9l2.9-1.4l-8.1,0.4l19.2-3.2
		c0,0,0.1,0.1,0.2,0.2c0.1,0.1,0.2,0.3,0.1,0.5l-2.1,15.9l-0.1-3.5l-5.8,6.7l-0.4-1.5l-7.6,7.1l9.4-10.8l0.4,1.1
		c1.4-1.6,2.2-3.6,2.4-5.6c0,0.1,0,0.1,0,0.1c-0.5,1.4-1.3,2.7-2.4,3.7c-0.6,0.5-1.2,0.9-1.9,1.2c-0.7,0.4-1.5,0.6-2.2,0.7
		c-0.4,0-0.8,0-1.2,0c-0.3,0-0.6-0.1-0.9-0.2l-4.5,4.4c0.1,0.5,0.1,0.9,0.1,1.4c0,0.5-0.1,0.9-0.2,1.3c-0.1,0.4-0.3,0.9-0.4,1.3
		c-0.2,0.4-0.4,0.8-0.6,1.2l-0.2,0.3l-0.2,0.3l-0.2,0.3l-0.1,0.1l-0.1,0.1c-0.1,0.2-0.3,0.3-0.5,0.5l-0.2,0.2l-0.3,0.2L145,39
		l-0.3,0.2l-0.3,0.2l-0.3,0.2c-0.4,0.2-0.8,0.4-1.2,0.5c-0.4,0.1-0.9,0.2-1.3,0.2c-0.2,0-0.4,0-0.6,0h-0.3c-0.1,0-0.2,0-0.3-0.1
		l-0.3-0.1l-0.3-0.1l-0.1-0.1l-0.1-0.1l-0.3-0.2c0.8,0.2,1.5,0.2,2.3,0c0.4-0.1,0.7-0.2,1.1-0.4l0.5-0.3c0.2-0.1,0.3-0.2,0.5-0.3
		c0.6-0.4,1.2-1,1.7-1.5c0.5-0.6,0.9-1.3,1.2-2c0.3-0.7,0.5-1.5,0.6-2.2c0.1-0.8,0-1.6-0.2-2.3c-0.1-0.4-0.3-0.7-0.5-1
		c-0.2-0.3-0.5-0.6-0.8-0.9c-0.3-0.2-0.6-0.4-1-0.6c-0.3-0.1-0.7-0.1-1.1-0.2C143.8,27.8,144,27.8,144.2,27.8z M152.9,19
		c1.5-2.2,4-3.1,5.5-2s1.5,3.7-0.1,5.8c-1.5,2.2-4,3.1-5.5,2S151.4,21.1,152.9,19z M144.6,30c1.5,1,1.5,3.7-0.1,5.8
		c-1.5,2.2-4,3.1-5.5,2c-1.5-1-1.5-3.7,0.1-5.8C140.6,29.9,143.1,28.9,144.6,30z M126,20.1c0-0.1,0-0.2,0.1-0.3
		c0.4-1.1,1.3-2,2.5-2.2l8.8-1.4c-0.3,0.1-9,2.3-10,4.1s-3.9,11.4-3.9,11.4L126,20.1z M135.3,26.3c-1.5,2.2-4,3.1-5.5,2
		s-1.5-3.7,0.1-5.8c1.5-2.2,4-3.1,5.5-2S136.9,24.1,135.3,26.3z M123.9,37.6l3.8-3.6c-0.2,0.1-0.5,0-0.7-0.3s-0.1-0.7,0.2-0.9
		c0.6-0.5,1.8-1.6,2.5-2.2c0,0,0,0,0,0c-0.3-0.2-0.6-0.5-0.9-0.9c-0.2-0.3-0.3-0.7-0.4-1.1c0.2,0.3,0.4,0.6,0.6,0.8
		c0.3,0.2,0.5,0.4,0.9,0.6c0.6,0.2,1.3,0.3,2,0.2c0.7-0.1,1.3-0.4,1.9-0.8c0.6-0.4,1.1-0.8,1.6-1.3c0.2-0.3,0.5-0.5,0.7-0.8
		c0.1-0.1,0.2-0.3,0.3-0.4l0.1-0.2c0-0.1,0.1-0.1,0.1-0.2c0.4-0.6,0.6-1.2,0.8-1.9c0.1-0.2,0.1-0.3,0.1-0.5c0-0.2,0.1-0.3,0.1-0.5
		c0-0.3,0-0.7,0-1c0-0.3-0.1-0.7-0.1-1c-0.2-0.6-0.3-1-0.5-1.3c0.3,0.2,0.6,0.5,0.8,0.9c0.1,0.2,0.2,0.4,0.3,0.7l4.4-3.6l-4.2,4.8
		c0,0.5,0,1.1,0,1.6c0,0.2-0.1,0.4-0.1,0.6l-0.1,0.3l-0.1,0.3l-0.1,0.3c0,0.1-0.1,0.2-0.1,0.3l-0.1,0.3l-0.1,0.3
		c-0.1,0.1-0.1,0.2-0.1,0.3l-0.1,0.2c-0.1,0.2-0.2,0.3-0.3,0.5c-0.2,0.3-0.5,0.6-0.8,0.9c-0.3,0.3-0.6,0.6-0.9,0.8
		c-0.3,0.2-0.6,0.4-0.9,0.6l-1.2,1.2c0.2,0.1,0.3,0.2,0.4,0.3c0.3,0.4,0.2,1.1-0.2,1.4c-0.9,0.8-10.9,10.3-10.9,10.3L123.9,37.6z
		 M120.7,44.7c-0.1,0.5-1,6.3-0.5,7.1s5.1,0.7,5.4,0.7l-5.7,0.4c-0.2,0-0.4-0.1-0.6-0.2c-0.1-0.2-0.2-0.4-0.2-0.6L120.7,44.7z"/>
	<path class="st7" d="M167.5,10.7c0.2,0.3,0.3,0.6,0.3,0.9c0.1,0.3,0.1,0.6,0,0.9l-4.9,36.2c-0.1,0.5-0.1,0.7-0.2,0.9
		c-0.5,1.6-2,2.8-3.7,2.9l-39,2.8c-1.2,0.1-2.2-0.5-2.8-1.4l0,0.2l0.2,0.1c-0.5,2.5-0.1,5.1,1.3,7.3c-0.1-1,0.3-2.1,1.2-2.8
		c0.4-0.3,1-0.5,1.5-0.6l36.9-3c2.7-0.2,5.3,1.1,6.7,3.4l6.1,10.1c-0.5-1-1-2-1.4-3c1,1.3,2,2.6,2.9,4c0.1,0.2,0.2,0.4,0.3,0.5
		c-0.1-0.2-0.2-0.4-0.3-0.6c-0.8-1.5-1.5-2.9-2.1-4.4c0.9,1.1,1.7,2.2,2.5,3.4c-0.7-1.2-1.3-2.5-1.8-3.8c1,1.3,2,2.6,2.9,4
		c0.9,1.4,1.8,2.7,2.6,4.1c0.8,1.4,1.6,2.8,2.4,4.2c0.8,1.4,1.5,3,2.1,4.5c-0.9-1.1-1.7-2.3-2.5-3.5c0.7,1.3,1.3,2.5,1.8,3.9
		c-1-1.3-2-2.6-2.9-4c-0.1-0.2-0.2-0.4-0.3-0.5c0.1,0.2,0.2,0.4,0.3,0.6c0.8,1.5,1.5,2.8,2.1,4.3c-0.7-1-1.5-2-2.2-3l2.4,4
		c0.4,0.7,0.5,1.5,0.3,2.3c0,0,0,0.1,0,0.1c1.7-0.6,3.2-1.9,4.1-3.4c-0.4,0.1-0.9,0.1-1.4-0.1c-0.6-0.2-1.1-0.6-1.4-1.2l-14.2-24.4
		c-1.1-1.8-1.5-4-1.2-6.1l4.5-36c0.1-0.4,0.4-0.8,0.8-1C170.3,12.2,169,11.2,167.5,10.7z"/>
	<path class="st7" d="M171.3,14.7l-4.5,36c-0.2,1.9,0.2,3.8,1.1,5.5l14.2,24.4c0.5,0.8,1.6,1.1,2.4,0.6c0.1-0.1,0.2-0.1,0.3-0.2
		c0.3-0.7,0.4-1.5,0.5-2.3l1.8-30.6c0.1-2.2-0.3-4.4-1.3-6.4L172,14.6c-0.1-0.1-0.1-0.2-0.2-0.3c0,0-0.1,0-0.1,0
		C171.5,14.4,171.3,14.5,171.3,14.7z M170,55c-0.8-1.4-1.1-3-0.9-4.5l0.4-3.7c0.3,1.8,0.7,4.6,0.8,5.7c0.2,1.6,4.1,10.1,4.2,10.2
		L170,55z M173.5,38.4c-0.5-2.5-0.3-4.8,0.4-5.7c0.2-0.2,0.4-0.4,0.8-0.5c1.4-0.1,2.7,2.8,3.2,5.7c0.4,1.6,0.4,3.3,0,4.9
		c-0.1,0.3-0.2,0.6-0.4,0.8c-0.2,0.3-0.5,0.5-0.8,0.5C175.3,44.2,174,41.3,173.5,38.4z M178.5,52.7c0.6-0.1,1.2,0.5,1.8,1.6
		c0.6,1.2,1,2.5,1.2,3.9c0.3,1.7,0.3,3.4-0.1,5c-0.3,0.7-0.6,1.1-1.1,1.2c-1.3,0.2-2.5-2.7-3-5.5c-0.2-1.3-0.3-2.7-0.1-4.1
		C177.4,53.5,177.9,52.8,178.5,52.7z M183.2,77L183.2,77l-0.2,0.2c-0.1,0-0.2,0-0.2-0.1l-6.4-11l5.9,8.2l1.7-9.6L183.2,77z
		 M180.5,52.1l0.2,0.2l0.2,0.2l0.2,0.2c0.1,0.1,0.2,0.3,0.4,0.4c0.4,0.6,0.8,1.2,1.1,1.9c0.6,1.4,0.9,2.8,1,4.3c0,0.4,0,0.8,0,1.1
		c0,0.4,0,0.7-0.1,1.1c-0.1,0.8-0.3,1.5-0.6,2.2c-0.2,0.4-0.3,0.7-0.6,1c-0.1,0.2-0.3,0.3-0.4,0.5c-0.2,0.1-0.3,0.3-0.5,0.4
		c-0.4,0.2-0.8,0.3-1.2,0.2c-0.4-0.1-0.7-0.3-1-0.6c0.3,0.2,0.6,0.3,1,0.4h0.3l0.3-0.1c0.2-0.1,0.3-0.1,0.5-0.2
		c0.3-0.2,0.5-0.5,0.7-0.8s0.3-0.7,0.4-1c0.2-0.7,0.4-1.4,0.4-2.1c0.1-0.7,0.1-1.4,0-2.1c-0.1-1.4-0.4-2.8-0.8-4.2
		c-0.2-0.7-0.5-1.3-0.9-1.9c-0.4-0.6-0.8-1.1-1.3-1.6c0.2,0.1,0.3,0.2,0.5,0.3C180.4,52,180.5,52,180.5,52.1z M179,34.8
		c0.5,1.1,0.8,2.2,0.9,3.4c0.1,1.2,0.1,2.4-0.2,3.5c-0.1,0.6-0.3,1.2-0.6,1.7c-0.1,0.3-0.3,0.5-0.5,0.8c-0.1,0.1-0.2,0.2-0.3,0.3
		c-0.1,0.1-0.2,0.2-0.4,0.3c0.4-0.4,0.7-0.9,0.9-1.5c0.2-0.5,0.3-1.1,0.4-1.7c0.1-1.1,0.1-2.3,0-3.4c-0.1-1.1-0.4-2.2-0.7-3.3
		c-0.4-1-1-2-1.7-2.8c0.5,0.3,0.9,0.7,1.3,1.2C178.5,33.8,178.8,34.3,179,34.8z M172.8,22c0-0.2,0.2-0.4,0.4-0.4
		c0.2,0.1,0.4,0.2,0.4,0.4c1.2,2.3,2.6,5.1,4,7.9l-3.8-5.1l-2.6,10L172.8,22z"/>
	<path class="st7" d="M188.1,44c0.2,0.7,0.3,1.5,0.4,2.2v0.1l-2,33.5c-0.2,0.3-0.2,0.5-0.3,0.7c-0.2,0.6-0.6,1.1-1.1,1.4
		c-1.1,2.2-3.1,3.9-5.5,4.6c-0.5,0.6-1.2,0.9-2,0.9L145.8,88c-2.2,0-4.5-0.2-6.6-1.1c1.8,0.9,3.9,1.4,6,1.3l32.4-0.7
		c2.3,0,4.6-1,6.3-2.6c1.1-1.1,1.9-2.4,2.4-3.9c0.3-0.8,0.4-1.5,0.5-2.3l1.8-30.6C188.7,46.7,188.5,45.3,188.1,44z"/>
	<path class="st7" d="M188.1,44C188.1,44,188.1,44,188.1,44C188.1,44,188.1,44,188.1,44z"/>
	<path class="st7" d="M187.4,41.8c0.2,0.4,0.3,0.8,0.4,1.2C187.7,42.6,187.6,42.2,187.4,41.8z"/>
	<path class="st7" d="M187.9,43c0.1,0.3,0.2,0.7,0.3,1C188.1,43.6,188,43.3,187.9,43z"/>
	<path class="st7" d="M125.1,70.6l-6.4-7.9c-2-2.4-2.8-5.6-2.1-8.7l0.2-0.8c-0.1-0.3-0.2-0.6-0.2-0.9c0-0.3,0-0.6,0.1-0.9l7-31.9
		c0.5-2.3,2.3-4,4.6-4.4l36-5.9c0.7-0.1,1.4,0,2,0.4c2.4,0.3,4.5,1.7,5.9,3.7c0.4,0,0.8,0.2,1.1,0.6c3.5,6.7,13.1,25.8,14.1,27.8
		c-0.1-0.2-0.2-0.4-0.3-0.7l-13.6-27.1c-1.9-3.7-5.9-5.7-9.9-5L128,15.1c-2.4,0.4-4.3,2.2-4.8,4.6L116,53.8
		c-0.7,3.3,0.2,6.7,2.3,9.3l16.4,20.2c0.5,0.6,1,1.1,1.5,1.6c-0.4-0.4-0.8-0.8-1.1-1.3L125.1,70.6z"/>
	<path class="st7" d="M139.2,86.9c-1.1-0.5-2.1-1.2-3-2C137.2,85.8,138.2,86.4,139.2,86.9z"/>
	<path class="st7" d="M180.1,85.7c-0.6,0.2-1.3,0.4-2,0.4c-0.2,0.1-0.5,0.1-0.7,0.1L145.7,87c-4.1,0.1-7.3-0.6-9.9-4l-3.6-4.7
		l-12.9-15.9c-0.2-0.3-0.5-0.6-0.7-0.9c0.1,0.5,0.2,1,0.6,1.4l5.9,7.7l10,12.3c2.4,3,6.1,4.7,9.9,4.6l32.5-0.7
		c0.7,0,1.4-0.1,2.1-0.3c0.1-0.1,0.2-0.2,0.3-0.4C180,85.9,180,85.8,180.1,85.7z"/>
	<path class="st7" d="M187.4,41.7C187.4,41.7,187.4,41.7,187.4,41.7C187.4,41.7,187.4,41.8,187.4,41.7
		C187.4,41.8,187.4,41.7,187.4,41.7z"/>
	<path class="st7" d="M188,48c0.1-2.3-0.3-4.6-1.4-6.7l-13.8-27.1c-0.2-0.3-0.4-0.6-0.6-0.9c-0.1,0-0.3,0-0.4,0
		c-0.2,0-0.3,0.1-0.5,0.2c0.2,0.2,0.3,0.5,0.5,0.8c0.2,0,0.3,0,0.4,0.1c3.5,6.7,13.2,26,14.1,27.8c0.6,1.3,0.9,2.7,1,4.1l-2,33.5
		c0,0.5-0.2,0.9-0.5,1.2c-0.2,0.5-0.4,0.9-0.6,1.3c0.3-0.1,0.7-0.2,0.9-0.4c0.5-1,0.8-2.1,0.9-3.3L188,48z"/>
	<path class="st7" d="M117.5,52.1c0-0.1,0-0.3,0.1-0.4l0.7-3.4l6-28.2c0.2-0.8,0.6-1.5,1.1-2c0.7-1,1.8-1.7,3-2.1l36-5.9
		c0.5-0.1,0.9,0,1.3,0.2c0.6,0.1,1.2,0.2,1.7,0.4c-0.3-0.5-0.7-0.8-1.1-1.1c-0.9-0.1-1.8-0.1-2.6,0l-35.6,6.2
		c-2.2,0.4-3.9,2-4.3,4.1l-7,33.3c0.1,0.3,0.2,0.5,0.4,0.8L117.5,52.1z"/>
	<path class="st7" d="M138,23.5l0.3-0.4c0-0.3-0.1-0.5-0.1-0.8c0-0.1-0.1-0.3-0.1-0.4l-0.3,0.2L138,23.5z"/>
	<path class="st7" d="M131.5,31.2h0.3h0.3c0.2,0,0.4-0.1,0.6-0.1L133,31l0.3-0.1c0.4-0.1,0.7-0.3,1.1-0.5c0,0,0.1,0,0.1,0l1.2-1.3
		l-3.4,1.3l-2.1-0.2c0,0-0.2,0.2-0.5,0.4c0.4,0.2,0.8,0.4,1.2,0.5C131.1,31.2,131.3,31.2,131.5,31.2z"/>
	<path class="st7" d="M150.2,25.1l0.1,0.1l0.1,0.3c0.1,0,0.1,0.1,0.2,0.2c0.5,0.7,1.1,1.2,1.9,1.5c0.1,0,0.2,0.1,0.3,0.1l0.4-0.4
		c0,0-2.3-0.8-2.7-2.3l-0.4,0.4L150.2,25.1L150.2,25.1z"/>
	<path class="st7" d="M148,32l0.3-0.3c0,0,0,0,0,0l-0.1-0.4c0-0.1-0.1-0.2-0.1-0.3c0-0.3-0.1-0.5-0.2-0.7c0-0.1,0-0.2-0.1-0.3
		c-0.1-0.1-0.1-0.2-0.2-0.3c-0.1-0.1-0.1-0.2-0.2-0.3c-0.1-0.1-0.1-0.2-0.2-0.3c-0.2-0.2-0.4-0.4-0.6-0.6l-0.2,0.2
		C147.2,29.6,147.8,30.8,148,32z"/>
	<path class="st7" d="M159.4,15.3c2.4,1.3,2.1,5,2.1,5c0,0.5,0,1-0.1,1.5c0.1-0.3,0.2-0.6,0.3-1c0.3-1.2,0.2-2.4-0.2-3.5
		c-0.2-0.4-0.4-0.8-0.6-1.1s-0.5-0.6-0.8-0.9c-0.6-0.5-1.4-0.9-2.2-1c-0.7-0.1-1.5,0-2.2,0.3c-0.3,0.1-0.5,0.2-0.8,0.4
		C156.6,14.8,158.3,14.7,159.4,15.3z"/>
	<path class="st7" d="M174.1,74.2c0.9,1.4,1.7,2.7,2.6,4.1c0.2,0.4,0.5,0.7,0.7,1L171,68.6c0.2,0.5,0.5,0.9,0.7,1.4
		C172.5,71.4,173.2,72.8,174.1,74.2z"/>
	<path class="st7" d="M177.2,77.4c-0.7-1.3-1.4-2.5-2.1-3.7c-0.7-1.2-1.5-2.4-2.3-3.6c0.7,1.3,1.4,2.5,2.1,3.7
		C175.6,75,176.4,76.2,177.2,77.4z"/>
	<path class="st7" d="M175.6,73.4c0.8,1.4,1.7,2.7,2.6,4.1c0.1,0.2,0.3,0.4,0.4,0.5c-0.1-0.2-0.2-0.4-0.3-0.5
		c-0.8-1.5-1.6-2.9-2.4-4.3c-0.8-1.4-1.7-2.7-2.6-4.1c-0.1-0.2-0.3-0.4-0.4-0.6c0.1,0.2,0.2,0.4,0.3,0.6
		C174,70.6,174.8,72,175.6,73.4z"/>
	<path class="st7" d="M153.2,58.1c0.1,0,0.3,0,0.4,0L153.2,58.1L153.2,58.1z"/>
	<path class="st7" d="M132.8,68.6c2.7,1.1,5.2,1,5.7-0.2c0.5-1.2-1.3-3-3.9-4.1c-2.7-1.1-5.2-1-5.7,0.2
		C128.4,65.7,130.1,67.5,132.8,68.6z M129.2,64.7c0.1-0.2,0.3-0.4,0.5-0.5c1.5-0.4,3-0.3,4.4,0.4c2.6,1,4.1,2.6,3.8,3.5
		c-0.1,0.2-0.3,0.4-0.5,0.5c-1.5,0.4-3,0.3-4.4-0.4C130.4,67.2,128.9,65.6,129.2,64.7z"/>
	<path class="st7" d="M149.5,73.9c2.7,1.1,5.2,1,5.7-0.2c0.5-1.2-1.3-3-3.9-4.1c-2.7-1.1-5.2-1-5.7,0.2S146.9,72.8,149.5,73.9z
		 M146,70.1c0.1-0.2,0.3-0.4,0.5-0.5c1.5-0.4,3-0.3,4.4,0.4c2.6,1,4.1,2.6,3.8,3.5c-0.1,0.2-0.3,0.4-0.5,0.5c-1.5,0.4-3,0.3-4.4-0.4
		C147.2,72.6,145.7,71,146,70.1z"/>
	<path class="st7" d="M165.2,80.2c2.7,1.1,5.2,1,5.7-0.2c0.5-1.2-1.3-3-3.9-4.1c-2.7-1.1-5.2-1-5.7,0.2
		C160.8,77.2,162.6,79.1,165.2,80.2z M161.8,76.2c0.1-0.2,0.2-0.3,0.5-0.5c1.5-0.4,3-0.3,4.4,0.4c2.6,1,4.1,2.6,3.8,3.5
		c-0.1,0.2-0.3,0.4-0.5,0.5c-1.5,0.4-3,0.3-4.4-0.4C163,78.7,161.5,77.1,161.8,76.2z"/>
	<path class="st7" d="M166.4,83.2l0.4,0.1l0.4,0.1l0.4,0.1c0.3,0.1,0.6,0.1,0.9,0.1c0.7,0,1.3,0,2-0.2c0.2-0.1,0.3-0.1,0.5-0.2
		c0.2,0,0.3-0.1,0.5-0.2c0.3-0.2,0.6-0.4,0.9-0.7c0.6-0.5,0.9-1.2,1.1-2c0.2-0.7,0.1-1.5-0.2-2.2c-0.1-0.3-0.3-0.6-0.5-0.9l-0.1-0.2
		l-0.1-0.2c-0.1-0.2-0.2-0.3-0.3-0.4c-0.3-0.3-0.7-0.6-1.1-1c1,1.4,1.7,3,2.1,4.7c0.2,1-0.8,1.7-1.9,2.1c0,0-0.1,0-0.1,0
		c-0.1,0.1-0.3,0.2-0.4,0.2s-0.3,0.1-0.4,0.1c-0.5,0.1-1,0.2-1.4,0.2c-0.7,0.1-1.2,0.1-1.2,0.1l-2.1,0.1c0.1,0,0.2,0.1,0.2,0.1
		L166.4,83.2z"/>
	<path class="st7" d="M144,84.8l0-0.5c-0.4-0.2-0.9-0.4-1.3-0.6l-0.1,0.9L144,84.8z"/>
	<path class="st7" d="M141.6,84.2l0.1-1c-1.2-0.7-2.3-1.5-3.4-2.3l-0.1,1.1L141.6,84.2z"/>
	<path class="st7" d="M139,71.4c0.3-0.2,0.6-0.4,0.9-0.7c0.6-0.5,0.9-1.2,1.1-2c0-0.1,0-0.1,0-0.2l-0.1,0l-0.1,0.5
		c0-0.1-0.1-0.3-0.1-0.4l-0.1,0c0,0-0.3,2.4-1.9,2.7c-0.4,0.1-0.6,0.3-0.8,0.5c0.2-0.1,0.3-0.1,0.5-0.2
		C138.7,71.6,138.8,71.5,139,71.4z"/>
	<path class="st7" d="M140.8,68.6l0.2,0l0.1-0.8c0-0.4-0.1-0.8-0.3-1.2c-0.1-0.3-0.3-0.6-0.5-0.9l-0.1-0.2l-0.1-0.2
		c-0.1-0.2-0.2-0.3-0.3-0.4c-0.3-0.3-0.8-0.7-1.2-1l0,0C139.6,65.2,140.4,66.8,140.8,68.6z"/>
	<path class="st7" d="M156.4,58.3c0.4,0,0.8,0.1,1.2,0.1c0.8,0.1,1.5,0.2,2.3,0.5c0.3,0.1,0.5,0.3,0.8,0.5l0.2-0.9L156.4,58.3z"/>
	<path class="st7" d="M157.1,70.9l-0.1-0.2l-0.1-0.2c-0.1-0.2-0.2-0.3-0.3-0.4c-0.4-0.4-0.9-0.8-1.4-1.2c-0.5-0.3-1-0.6-1.6-0.9
		c-0.2-0.1-0.4-0.2-0.5-0.2L153,68c1.5,0.5,2.9,1.5,3.8,2.8c1.2,2,0.6,2,0.6,2s0.3,0,0.4-0.3c-0.1-0.2-0.1-0.5-0.2-0.7
		C157.5,71.5,157.3,71.2,157.1,70.9z"/>
	<path class="st7" d="M162.1,59.9l-0.1,0.6c0.2,0.2,0.4,0.5,0.5,0.8c0.6,0.9,1.2,1.7,1.7,2.6l0.2-1L162.1,59.9z"/>
	<path class="st7" d="M153.5,77l-0.1,0.3c0.5,0,0.9-0.1,1.4-0.2c0.2-0.1,0.3-0.1,0.5-0.2c0.2,0,0.3-0.1,0.5-0.2
		c0.1-0.1,0.2-0.1,0.3-0.2l0-0.1L153.5,77z"/>
</g>
</svg>
